<svg width="48" height="39" viewBox="0 0 48 39" fill="none" xmlns="http://www.w3.org/2000/svg">
<g clip-path="url(#clip0_4201_212)">
<path d="M48 39H18.0419L0 30.2419V0H29.621L48 8.75812V39ZM18.0419 37.5497H46.5419V9.66399L29.621 1.45025H1.45806V29.336L18.0419 37.5497Z" fill="#231F20"/>
<path d="M26.3197 26.3857C26.7641 26.3857 27.237 26.5119 27.6179 26.8342C28.001 27.1565 28.2484 27.6857 28.2484 28.291V31.5334C28.2484 32.1387 28.001 32.6679 27.6179 32.9902C27.2348 33.3125 26.7641 33.4387 26.3197 33.4387H19.9773C19.5329 33.4387 19.06 33.3125 18.6769 32.9902C18.2938 32.6679 18.0464 32.1387 18.0464 31.5334V28.291C18.0464 27.6857 18.2938 27.1565 18.6769 26.8342C19.06 26.5119 19.5307 26.3857 19.9773 26.3857H26.3197ZM19.6424 27.6922C19.5285 27.788 19.4431 27.9078 19.4431 28.2235V31.6052C19.4431 31.9188 19.5285 32.0386 19.6424 32.1366C19.7562 32.2324 19.9445 32.2955 20.1503 32.2955H26.1445C26.3525 32.2955 26.5386 32.2324 26.6525 32.1366C26.7663 32.0408 26.8517 31.921 26.8517 31.6052V28.2235C26.8517 27.9099 26.7663 27.7902 26.6525 27.6922C26.5386 27.5964 26.3503 27.5332 26.1445 27.5332H20.1503C19.9423 27.5332 19.7562 27.5964 19.6424 27.6922Z" fill="#231F20"/>
<path d="M31.0113 26.3854V32.2931H36.9136V33.4385H29.6211V26.3832H31.0113V26.3854Z" fill="#231F20"/>
<path d="M36.5654 26.3854L38.5117 28.1862L39.3874 28.9963L39.6151 29.2053L39.8428 28.9963L40.7185 28.1862L42.6648 26.3854H44.611L42.6648 28.1862L40.817 29.8956L40.5893 30.1047L40.3157 30.3594V33.4385H38.9189V30.3594L38.6452 30.1047L38.4176 29.8956L36.5698 28.1862L34.6235 26.3854H36.5698H36.5654Z" fill="#231F20"/>
<path d="M44.0242 31.2305C44.2059 31.3328 44.346 31.4743 44.4511 31.6551C44.554 31.8358 44.6066 32.034 44.6066 32.2539C44.6066 32.4738 44.554 32.6742 44.4489 32.8549C44.3438 33.0378 44.1994 33.1794 44.0176 33.2861C43.8359 33.3906 43.6345 33.4429 43.4156 33.4429C43.1967 33.4429 42.9953 33.3906 42.8135 33.2861C42.6318 33.1816 42.4895 33.0378 42.3866 32.8571C42.2815 32.6764 42.229 32.4782 42.229 32.2604C42.229 32.0427 42.2815 31.8445 42.3866 31.6638C42.4917 31.4831 42.634 31.3393 42.8157 31.2348C42.9974 31.1303 43.1989 31.078 43.4222 31.078C43.6455 31.078 43.8469 31.1303 44.0264 31.2326L44.0242 31.2305ZM43.9038 33.0944C44.0505 33.0095 44.1665 32.8919 44.2497 32.7439C44.3329 32.5958 44.3767 32.4325 44.3767 32.2539C44.3767 32.0754 44.3351 31.9099 44.2541 31.764C44.1731 31.6181 44.0592 31.5048 43.9126 31.4199C43.7659 31.3372 43.6039 31.2936 43.42 31.2936C43.2361 31.2936 43.0741 31.335 42.9274 31.4199C42.7807 31.5048 42.6669 31.6202 42.5837 31.7683C42.5005 31.9164 42.4589 32.0797 42.4589 32.2583C42.4589 32.4368 42.5005 32.6001 42.5837 32.7482C42.6669 32.8963 42.7807 33.0117 42.9252 33.0966C43.0697 33.1816 43.2317 33.2229 43.4112 33.2229C43.5907 33.2229 43.7549 33.1794 43.9016 33.0944H43.9038ZM43.9126 32.3062C43.8775 32.365 43.8228 32.4107 43.7527 32.4434L44.0001 32.8201H43.6958L43.4835 32.4956H43.282V32.8201H42.9777V31.6943H43.4703C43.6236 31.6943 43.744 31.7313 43.8316 31.8032C43.9191 31.875 43.9629 31.973 43.9629 32.095C43.9629 32.1755 43.9454 32.2474 43.9082 32.3062H43.9126ZM43.4528 32.2692C43.5207 32.2692 43.5732 32.2539 43.6126 32.2234C43.6498 32.1929 43.6696 32.1494 43.6696 32.095C43.6696 32.0405 43.6498 31.9948 43.6126 31.9643C43.5754 31.9338 43.5207 31.9186 43.4528 31.9186H43.2799V32.2692H43.4528Z" fill="#231F20"/>
</g>
<defs>
<clipPath id="clip0_4201_212">
<rect width="48" height="39" fill="white"/>
</clipPath>
</defs>
</svg>
