<svg width="168" height="137" viewBox="0 0 168 137" fill="none" xmlns="http://www.w3.org/2000/svg">
<g clip-path="url(#clip0_532_1863)">
<path d="M168 137H63.1465L0 106.234V0H103.673L168 30.7657V137ZM63.1465 131.906H162.897V33.9479L103.673 5.09447H5.10322V103.052L63.1465 131.906Z" fill="white"/>
<path d="M92.1186 92.6873C93.6741 92.6873 95.3292 93.131 96.6625 94.2631C98.0034 95.3952 98.8693 97.254 98.8693 99.3805V110.77C98.8693 112.897 98.0034 114.756 96.6625 115.888C95.3216 117.02 93.6741 117.464 92.1186 117.464H69.9204C68.3649 117.464 66.7098 117.02 65.3689 115.888C64.028 114.756 63.1621 112.897 63.1621 110.77V99.3805C63.1621 97.254 64.028 95.3952 65.3689 94.2631C66.7098 93.131 68.3573 92.6873 69.9204 92.6873H92.1186ZM68.7481 97.2769C68.3496 97.6135 68.0508 98.0342 68.0508 99.1434V111.023C68.0508 112.124 68.3496 112.545 68.7481 112.889C69.1465 113.226 69.8055 113.448 70.5258 113.448H91.5056C92.2336 113.448 92.8849 113.226 93.2833 112.889C93.6818 112.553 93.9806 112.132 93.9806 111.023V99.1434C93.9806 98.0419 93.6818 97.6212 93.2833 97.2769C92.8849 96.9404 92.2259 96.7185 91.5056 96.7185H70.5258C69.7978 96.7185 69.1465 96.9404 68.7481 97.2769Z" fill="white"/>
<path d="M108.539 92.6873V113.44H129.198V117.464H103.674V92.6796H108.539V92.6873Z" fill="white"/>
<path d="M127.979 92.6873L134.791 99.0133L137.856 101.859L138.653 102.593L139.45 101.859L142.515 99.0133L149.327 92.6873H156.139L149.327 99.0133L142.86 105.018L142.063 105.752L141.105 106.647V117.464H136.216V106.647L135.259 105.752L134.462 105.018L127.995 99.0133L121.183 92.6873H127.995H127.979Z" fill="white"/>
<path d="M154.085 109.707C154.721 110.067 155.211 110.564 155.579 111.199C155.939 111.834 156.123 112.53 156.123 113.302C156.123 114.075 155.939 114.779 155.572 115.414C155.204 116.056 154.698 116.553 154.062 116.928C153.426 117.295 152.721 117.479 151.955 117.479C151.189 117.479 150.484 117.295 149.848 116.928C149.212 116.561 148.714 116.056 148.353 115.421C147.986 114.786 147.802 114.09 147.802 113.325C147.802 112.56 147.986 111.864 148.353 111.229C148.721 110.594 149.219 110.09 149.855 109.722C150.491 109.355 151.196 109.172 151.978 109.172C152.759 109.172 153.464 109.355 154.093 109.715L154.085 109.707ZM153.664 116.255C154.177 115.957 154.583 115.544 154.874 115.023C155.165 114.503 155.319 113.93 155.319 113.302C155.319 112.675 155.173 112.094 154.89 111.581C154.606 111.069 154.208 110.671 153.694 110.373C153.181 110.082 152.614 109.929 151.97 109.929C151.327 109.929 150.759 110.074 150.246 110.373C149.733 110.671 149.334 111.076 149.043 111.596C148.752 112.117 148.606 112.69 148.606 113.318C148.606 113.945 148.752 114.519 149.043 115.039C149.334 115.559 149.733 115.964 150.238 116.263C150.744 116.561 151.311 116.706 151.939 116.706C152.568 116.706 153.143 116.553 153.656 116.255H153.664ZM153.694 113.486C153.572 113.692 153.38 113.853 153.135 113.968L154.001 115.291H152.936L152.192 114.151H151.487V115.291H150.422V111.336H152.146C152.683 111.336 153.104 111.466 153.411 111.719C153.717 111.971 153.87 112.316 153.87 112.744C153.87 113.027 153.809 113.279 153.679 113.486H153.694ZM152.085 113.356C152.323 113.356 152.507 113.302 152.644 113.195C152.775 113.088 152.844 112.935 152.844 112.744C152.844 112.553 152.775 112.392 152.644 112.285C152.514 112.178 152.323 112.124 152.085 112.124H151.48V113.356H152.085Z" fill="white"/>
</g>
<defs>
<clipPath id="clip0_532_1863">
<rect width="168" height="137" fill="white"/>
</clipPath>
</defs>
</svg>
